<mxfile host="65bd71144e">
    <diagram name="Page-1" id="SMmOiZGLec9H7ruN5qyQ">
        <mxGraphModel dx="764" dy="289" grid="1" gridSize="10" guides="1" tooltips="1" connect="1" arrows="1" fold="1" page="1" pageScale="1" pageWidth="827" pageHeight="1169" math="0" shadow="0">
            <root>
                <mxCell id="0"/>
                <mxCell id="1" parent="0"/>
                <mxCell id="c-_7pHU60HQ0aR4bwu-4-3" style="edgeStyle=orthogonalEdgeStyle;rounded=0;orthogonalLoop=1;jettySize=auto;html=1;exitX=0.5;exitY=1;exitDx=0;exitDy=0;entryX=0.5;entryY=0;entryDx=0;entryDy=0;" parent="1" source="c-_7pHU60HQ0aR4bwu-4-1" target="c-_7pHU60HQ0aR4bwu-4-2" edge="1">
                    <mxGeometry relative="1" as="geometry"/>
                </mxCell>
                <mxCell id="c-_7pHU60HQ0aR4bwu-4-5" style="edgeStyle=orthogonalEdgeStyle;rounded=0;orthogonalLoop=1;jettySize=auto;html=1;exitX=1;exitY=1;exitDx=0;exitDy=0;entryX=0.5;entryY=0;entryDx=0;entryDy=0;" parent="1" source="c-_7pHU60HQ0aR4bwu-4-1" target="c-_7pHU60HQ0aR4bwu-4-4" edge="1">
                    <mxGeometry relative="1" as="geometry"/>
                </mxCell>
                <mxCell id="c-_7pHU60HQ0aR4bwu-4-7" style="edgeStyle=orthogonalEdgeStyle;rounded=0;orthogonalLoop=1;jettySize=auto;html=1;exitX=0;exitY=1;exitDx=0;exitDy=0;entryX=0.5;entryY=0;entryDx=0;entryDy=0;" parent="1" source="c-_7pHU60HQ0aR4bwu-4-1" target="c-_7pHU60HQ0aR4bwu-4-6" edge="1">
                    <mxGeometry relative="1" as="geometry"/>
                </mxCell>
                <mxCell id="c-_7pHU60HQ0aR4bwu-4-1" value="TIME_INFO" style="rounded=0;whiteSpace=wrap;html=1;" parent="1" vertex="1">
                    <mxGeometry x="340" y="230" width="120" height="60" as="geometry"/>
                </mxCell>
                <mxCell id="c-_7pHU60HQ0aR4bwu-4-2" value="APIC/PIC/IOAPIC" style="rounded=0;whiteSpace=wrap;html=1;" parent="1" vertex="1">
                    <mxGeometry x="340" y="400" width="120" height="60" as="geometry"/>
                </mxCell>
                <mxCell id="c-_7pHU60HQ0aR4bwu-4-4" value="GT" style="rounded=0;whiteSpace=wrap;html=1;" parent="1" vertex="1">
                    <mxGeometry x="530" y="400" width="120" height="60" as="geometry"/>
                </mxCell>
                <mxCell id="c-_7pHU60HQ0aR4bwu-4-6" value="CLINT" style="rounded=0;whiteSpace=wrap;html=1;" parent="1" vertex="1">
                    <mxGeometry x="150" y="400" width="120" height="60" as="geometry"/>
                </mxCell>
                <mxCell id="c-_7pHU60HQ0aR4bwu-4-9" style="edgeStyle=orthogonalEdgeStyle;rounded=0;orthogonalLoop=1;jettySize=auto;html=1;entryX=0.5;entryY=0;entryDx=0;entryDy=0;" parent="1" source="c-_7pHU60HQ0aR4bwu-4-8" target="c-_7pHU60HQ0aR4bwu-4-1" edge="1">
                    <mxGeometry relative="1" as="geometry"/>
                </mxCell>
                <mxCell id="c-_7pHU60HQ0aR4bwu-4-8" value="Scheduler context switch (on non MT mode),&lt;br&gt;Also SoftwareTimer gets implemented." style="rounded=0;whiteSpace=wrap;html=1;" parent="1" vertex="1">
                    <mxGeometry x="130" y="75" width="120" height="90" as="geometry"/>
                </mxCell>
                <mxCell id="c-_7pHU60HQ0aR4bwu-4-11" style="edgeStyle=orthogonalEdgeStyle;rounded=0;orthogonalLoop=1;jettySize=auto;html=1;entryX=1;entryY=0;entryDx=0;entryDy=0;exitX=0;exitY=0.5;exitDx=0;exitDy=0;" parent="1" source="c-_7pHU60HQ0aR4bwu-4-10" edge="1">
                    <mxGeometry relative="1" as="geometry">
                        <mxPoint x="530" y="120" as="sourcePoint"/>
                        <mxPoint x="430" y="230" as="targetPoint"/>
                    </mxGeometry>
                </mxCell>
                <mxCell id="c-_7pHU60HQ0aR4bwu-4-10" value="Hook 2 system calls for timing purposes.&lt;br&gt;(Wait, WaitUntil)" style="rounded=0;whiteSpace=wrap;html=1;" parent="1" vertex="1">
                    <mxGeometry x="560" y="90" width="120" height="60" as="geometry"/>
                </mxCell>
                <mxCell id="2" value="It is either abstracted like this, or has a direct interface to it." style="text;html=1;strokeColor=none;fillColor=none;align=center;verticalAlign=middle;whiteSpace=wrap;rounded=0;" vertex="1" parent="1">
                    <mxGeometry x="490" y="235" width="200" height="55" as="geometry"/>
                </mxCell>
            </root>
        </mxGraphModel>
    </diagram>
</mxfile>